{
  "title": "Shaun.the.Sheep.The.Movie.2015.1080p.WEB-DL.DD5.1.H264-RARBG",
  "uid": 11877511,
  "size": 3442882993,
  "categoryP": "video",
  "categoryS": "movies",
  "magnet": "?xt=urn:btih:18f5c0dc73a07f80d4e61121578851f738abe58a&amp;dn=Shaun.the.Sheep.The.Movie.2015.1080p.WEB-DL.DD5.1.H264-RARBG&amp;tr=udp%3A%2F%2Ftracker.openbittorrent.com%3A80&amp;tr=udp%3A%2F%2Fopen.demonii.com%3A1337&amp;tr=udp%3A%2F%2Ftracker.coppersurfer.tk%3A6969&amp;tr=udp%3A%2F%2Fexodus.desync.com%3A6969",
  "seeders": 105,
  "leechers": 8,
  "uploader": "vickey1992",
  "files": 4,
  "time": 1430582988,
  "description": "Video\nID                                       : 1\nFormat                                   : AVC\nFormat/Info                              : Advanced Video Codec\nFormat profile                           : &lt;a class=&quot;__cf_email__&quot; href=&quot;/cdn-cgi/l/email-protection&quot; data-cfemail=&quot;90d8f9f7f8d0dca4bea0&quot;&gt;[email&amp;#160;protected]&lt;/a&gt;&lt;script cf-hash='f9e31' type=&quot;text/javascript&quot;&gt;\n/* &lt;![CDATA[ */!function(){try{var t=&quot;currentScript&quot;in document?document.currentScript:function(){for(var t=document.getElementsByTagName(&quot;script&quot;),e=t.length;e--;)if(t[e].getAttribute(&quot;cf-hash&quot;))return t[e]}();if(t&amp;&amp;t.previousSibling){var e,r,n,i,c=t.previousSibling,a=c.getAttribute(&quot;data-cfemail&quot;);if(a){for(e=&quot;&quot;,r=parseInt(a.substr(0,2),16),n=2;a.length-n;n+=2)i=parseInt(a.substr(n,2),16)^r,e+=String.fromCharCode(i);e=document.createTextNode(e),c.parentNode.replaceChild(e,c)}}}catch(u){}}();/* ]]&gt; */&lt;/script&gt;\nFormat settings, CABAC                   : Yes\nFormat settings, ReFrames                : 4 frames\nCodec ID                                 : V_MPEG4/ISO/AVC\nDuration                                 : 1h 21mn\nBit rate                                 : 5 131 Kbps\nWidth                                    : 1 918 pixels\nHeight                                   : 1 036 pixels\nDisplay aspect ratio                     : 1.85:1\nFrame rate mode                          : Constant\nFrame rate                               : 25.000 fps\nColor space                              : YUV\nChroma subsampling                       : 4:2:0\nBit depth                                : 8 bits\nScan type                                : Progressive\nBits/(Pixel*Frame)                       : 0.103\nStream size                              : 2.92 GiB (91%)\nTitle                                    : Shaun.the.Sheep.The.Movie.2015.1080p.WEB-DL.DD5.1.H264-RARBG\nLanguage                                 : English\nDefault                                  : Yes\nForced                                   : No\nColor primaries                          : BT.709\nTransfer characteristics                 : BT.709\nMatrix coefficients                      : BT.709\nColor range                              : Limited\n\nAudio\nID                                       : 2\nFormat                                   : AC-3\nFormat/Info                              : Audio Coding 3\nMode extension                           : CM (complete main)\nFormat settings, Endianness              : Big\nCodec ID                                 : A_AC3\nDuration                                 : 1h 21mn\nBit rate mode                            : Constant\nBit rate                                 : 384 Kbps\nChannel(s)                               : 6 channels\nChannel positions                        : Front: L C R, Side: L R, LFE\nSampling rate                            : 48.0 KHz\nBit depth                                : 16 bits\nCompression mode                         : Lossy\nStream size                              : 224 MiB (7%)\nTitle                                    : Shaun.the.Sheep.The.Movie.2015.1080p.WEB-DL.DD5.1.H264-RARBG\nLanguage                                 : English\nDefault                                  : Yes\nForced                                   : No\n\nMenu\n00:00:00.000                             : en:1\n00:02:08.000                             : en:2\n00:05:36.000                             : en:3\n00:09:06.000                             : en:4\n00:13:18.000                             : en:5\n00:16:53.000                             : en:6\n00:20:10.000                             : en:7\n00:24:53.000                             : en:8\n00:27:29.000                             : en:9\n00:30:50.000                             : en:10\n00:35:38.000                             : en:11\n00:38:29.000                             : en:12\n00:42:46.000                             : en:13\n00:47:39.000                             : en:14\n00:52:27.000                             : en:15\n00:56:54.000                             : en:16\n01:00:54.000                             : en:17\n01:05:25.000                             : en:18\n01:08:47.000                             : en:19\n01:12:37.000                             : en:20\nNotes:\nGreetz to all!",
  "parsed": {
    "xt": "urn:btih:18f5c0dc73a07f80d4e61121578851f738abe58a",
    "dn": "Shaun.the.Sheep.The.Movie.2015.1080p.WEB-DL.DD5.1.H264-RARBG",
    "tr": [
      "udp://exodus.desync.com:6969",
      "udp://open.demonii.com:1337",
      "udp://tracker.coppersurfer.tk:6969",
      "udp://tracker.openbittorrent.com:80"
    ],
    "infoHash": "18f5c0dc73a07f80d4e61121578851f738abe58a",
    "infoHashBuffer": {
      "type": "Buffer",
      "data": [
        24,
        245,
        192,
        220,
        115,
        160,
        127,
        128,
        212,
        230,
        17,
        33,
        87,
        136,
        81,
        247,
        56,
        171,
        229,
        138
      ]
    },
    "name": "Shaun.the.Sheep.The.Movie.2015.1080p.WEB-DL.DD5.1.H264-RARBG",
    "announce": [
      "udp://exodus.desync.com:6969",
      "udp://open.demonii.com:1337",
      "udp://tracker.coppersurfer.tk:6969",
      "udp://tracker.openbittorrent.com:80"
    ],
    "urlList": []
  },
  "previous": 113,
  "peers": 11,
  "last_updated": "2016-12-24T18:26:45.802Z"
}